<?xml version="1.0" encoding="UTF-8" standalone="no"?>
<!-- Created with Inkscape (http://www.inkscape.org/) -->
<svg xmlns:dc="http://purl.org/dc/elements/1.1/" xmlns:cc="http://creativecommons.org/ns#" xmlns:rdf="http://www.w3.org/1999/02/22-rdf-syntax-ns#" xmlns:svg="http://www.w3.org/2000/svg" xmlns="http://www.w3.org/2000/svg" xmlns:xlink="http://www.w3.org/1999/xlink" xmlns:sodipodi="http://sodipodi.sourceforge.net/DTD/sodipodi-0.dtd" xmlns:inkscape="http://www.inkscape.org/namespaces/inkscape" width="1445.146" height="912.4198" id="svg2383" sodipodi:version="0.32" inkscape:version="0.46" version="1.0" sodipodi:docname="Paul Ricard.svg" inkscape:output_extension="org.inkscape.output.svg.inkscape">
  <defs id="defs2385">
    <clipPath clipPathUnits="userSpaceOnUse" id="clipPath3586">
      <rect style="opacity:1;fill:#006a00;fill-opacity:1;fill-rule:nonzero;stroke:none;stroke-width:0.60000002;stroke-linecap:square;stroke-linejoin:round;stroke-miterlimit:4;stroke-dasharray:none;stroke-dashoffset:0;stroke-opacity:1" id="rect3588" width="1511.7876" height="1003.748" x="683.14056" y="104.10391"/>
    </clipPath>
    <clipPath clipPathUnits="userSpaceOnUse" id="clipPath3490">
      <rect style="opacity:1;fill:#006a00;fill-opacity:1;fill-rule:nonzero;stroke:none;stroke-width:0.60000002;stroke-linecap:square;stroke-linejoin:round;stroke-miterlimit:4;stroke-dasharray:none;stroke-dashoffset:0;stroke-opacity:1" id="rect3492" width="1511.7875" height="1003.7479" x="683.1405" y="104.1039" transform="matrix(-0.7183395,0.6956928,-0.6956928,-0.7183395,0,0)"/>
    </clipPath>
    <pattern patternUnits="userSpaceOnUse" width="18.181098" height="18.137641" patternTransform="matrix(0.1737876,0,0,0.1737876,763.47719,1693.9071)" id="pattern4912">
      <g id="g4907" transform="translate(-1025.5348,-1215.2814)">
        <rect style="opacity:1;fill:#999999;fill-opacity:1;stroke:none;stroke-width:0.5;stroke-linecap:round;stroke-linejoin:round;stroke-miterlimit:4;stroke-dasharray:none;stroke-dashoffset:0;stroke-opacity:1" id="rect4899" width="18.172573" height="18.095789" x="1025.5348" y="1215.2814"/>
        <rect style="opacity:1;fill:#111111;fill-opacity:1;stroke:none;stroke-width:0.5;stroke-linecap:round;stroke-linejoin:round;stroke-miterlimit:4;stroke-dasharray:none;stroke-dashoffset:0;stroke-opacity:1" id="rect4903" width="9.0746527" height="9.0746527" x="1025.5348" y="1215.2814"/>
        <rect style="opacity:1;fill:#111111;fill-opacity:1;stroke:none;stroke-width:0.5;stroke-linecap:round;stroke-linejoin:round;stroke-miterlimit:4;stroke-dasharray:none;stroke-dashoffset:0;stroke-opacity:1" id="rect4905" width="9.0746527" height="9.0746527" x="1034.6412" y="1224.3444"/>
      </g>
    </pattern>
    <pattern inkscape:collect="always" xlink:href="#pattern4912" id="pattern4166" patternTransform="matrix(0.4562459,1.6264824e-8,-1.6264824e-8,0.4562459,-1778.2267,454.6431)"/>
    <clipPath clipPathUnits="userSpaceOnUse" id="clipPath3494">
      <rect style="opacity:1;fill:#006a00;fill-opacity:1;fill-rule:nonzero;stroke:none;stroke-width:0.60000002;stroke-linecap:square;stroke-linejoin:round;stroke-miterlimit:4;stroke-dasharray:none;stroke-dashoffset:0;stroke-opacity:1" id="rect3496" width="2168.1926" height="1468.4177" x="-4232.8457" y="-2372.1296" transform="matrix(-0.9472965,-0.3203582,0.9519016,-0.3064038,0,0)"/>
    </clipPath>
    <inkscape:perspective sodipodi:type="inkscape:persp3d" inkscape:vp_x="0 : 526.18109 : 1" inkscape:vp_y="0 : 1000 : 0" inkscape:vp_z="744.09448 : 526.18109 : 1" inkscape:persp3d-origin="372.04724 : 350.78739 : 1" id="perspective2391"/>
    <inkscape:perspective id="perspective2400" inkscape:persp3d-origin="372.04724 : 350.78739 : 1" inkscape:vp_z="744.09448 : 526.18109 : 1" inkscape:vp_y="0 : 1000 : 0" inkscape:vp_x="0 : 526.18109 : 1" sodipodi:type="inkscape:persp3d"/>
    <inkscape:perspective id="perspective3229" inkscape:persp3d-origin="372.04724 : 350.78739 : 1" inkscape:vp_z="744.09448 : 526.18109 : 1" inkscape:vp_y="0 : 1000 : 0" inkscape:vp_x="0 : 526.18109 : 1" sodipodi:type="inkscape:persp3d"/>
  </defs>
  <sodipodi:namedview id="base" pagecolor="#111111" bordercolor="#111111" borderopacity="0.0" inkscape:pageopacity="0.0" inkscape:pageshadow="0" inkscape:zoom="0.87326814" inkscape:cx="722.57298" inkscape:cy="446.67283" inkscape:document-units="px" inkscape:current-layer="layer1" showgrid="false" inkscape:window-width="1677" inkscape:window-height="1031" inkscape:window-x="1276" inkscape:window-y="-4"/>
  <metadata id="metadata2388">
    <rdf:RDF>
      <cc:Work rdf:about="">
        <dc:format>image/svg+xml</dc:format>
        <dc:type rdf:resource="http://purl.org/dc/dcmitype/StillImage"/>
        <dc:title>Track map for Paul Ricard</dc:title>
        <dc:date>7-23-2008</dc:date>
        <dc:creator>
          <cc:Agent>
            <dc:title>Will Pittenger</dc:title>
          </cc:Agent>
        </dc:creator>
        <dc:publisher>
          <cc:Agent>
            <dc:title>Will Pittenger</dc:title>
          </cc:Agent>
        </dc:publisher>
        <dc:subject>
          <rdf:Bag>
            <rdf:li>Paul Ricard</rdf:li>
            <rdf:li>Formula 1</rdf:li>
            <rdf:li>road racing</rdf:li>
            <rdf:li>Bernie Ecclestone</rdf:li>
            <rdf:li>Verriere</rdf:li>
            <rdf:li>Chicane</rdf:li>
            <rdf:li>Saint-Beaurne</rdf:li>
            <rdf:li>L'ecole</rdf:li>
            <rdf:li>Mistral Straight</rdf:li>
            <rdf:li>Signes</rdf:li>
            <rdf:li>Beausset</rdf:li>
            <rdf:li>Bendor</rdf:li>
            <rdf:li>Village</rdf:li>
            <rdf:li>Tour</rdf:li>
            <rdf:li>Virage du Pont</rdf:li>
          </rdf:Bag>
        </dc:subject>
      </cc:Work>
    </rdf:RDF>
  </metadata>
  <g inkscape:label="Layer 1" inkscape:groupmode="layer" id="layer1" transform="translate(-1330.146,-674.76135)">
    <path sodipodi:nodetypes="csssss" id="path3218" d="M 2260.0056,1345.9199 C 2253.7497,1341.1594 2247.3623,1335.6985 2242.8827,1329.6195 C 2239.5662,1325.1189 2245.3826,1317.2422 2240.7891,1308.6831 C 2238.2864,1304.0256 2234.0974,1299.4236 2229.4236,1296.4204 C 2183.0525,1266.6233 2132.2236,1242.978 2087.6545,1210.2822 C 2067.5514,1195.5346 2045.9064,1182.8655 2025.7427,1168.2599" style="fill:none;fill-rule:evenodd;stroke:#111111;stroke-width:4;stroke-linecap:round;stroke-linejoin:round;stroke-miterlimit:4;stroke-dasharray:none;stroke-opacity:1"/>
    <path sodipodi:nodetypes="csss" id="path3198" d="M 1678.7973,923.41661 C 1679.0652,919.77767 1680.242,916.0525 1679.6945,912.53718 C 1679.2948,909.97099 1678.3597,906.99621 1676.5541,905.20946 C 1673.5742,902.26061 1668.1796,898.82885 1663.8427,897.43309" style="fill:none;fill-rule:evenodd;stroke:#111111;stroke-width:12;stroke-linecap:round;stroke-linejoin:round;stroke-miterlimit:4;stroke-dasharray:none;stroke-opacity:1"/>
    <path sodipodi:nodetypes="cssssssssssz" id="path3200" d="M 2089.7481,1222.2458 C 2080.9748,1215.1673 2077.728,1205.4997 2074.7936,1196.524 C 2072.6434,1189.947 2072.4009,1182.5472 2072.4009,1175.5876 C 2072.4009,1170.6833 2072.4221,1164.7589 2074.7936,1160.9322 C 2076.8088,1157.6804 2081.554,1155.4714 2085.5609,1154.3522 C 2099.3998,1150.4866 2115.3374,1151.0772 2128.3309,1145.9776 C 2133.881,1143.7993 2138.8161,1137.8875 2141.1918,1132.5185 C 2143.801,1126.6218 2141.5345,1118.6693 2143.2855,1112.1804 C 2144.9242,1106.1075 2147.0958,1098.8317 2151.3609,1094.8331 C 2155.0715,1091.3544 2161.8116,1090.0559 2167.2127,1089.7485 C 2174.0743,1089.358 2181.4725,1090.5372 2188.1491,1092.7395 C 2226.2053,1105.2924 2303.0862,1136.6728 2340.5918,1151.0622" style="fill:none;fill-rule:evenodd;stroke:#111111;stroke-width:12;stroke-linecap:butt;stroke-linejoin:miter;stroke-miterlimit:4;stroke-dasharray:none;stroke-opacity:1"/>
    <path sodipodi:nodetypes="cc" id="path3202" d="M 2083.7663,1055.9513 L 2195.0282,1095.1322" style="fill:none;fill-rule:evenodd;stroke:#111111;stroke-width:12;stroke-linecap:round;stroke-linejoin:round;stroke-miterlimit:4;stroke-dasharray:none;stroke-opacity:1"/>
    <path sodipodi:nodetypes="cssssss" id="path3204" d="M 1866.6263,1050.8667 C 1875.5991,1056.8485 1890.6301,1058.8502 1899.8255,1057.4467 C 1909.5726,1055.959 1915.7099,1051.8284 1924.65,1046.9785 C 1930.9635,1043.5536 1937.0485,1036.0584 1943.1937,1032.3231 C 1947.2176,1029.8772 1955.4918,1029.7631 1958.4473,1026.6404 C 1960.7758,1024.1801 1962.7835,1018.7559 1961.4382,1015.8731 C 1959.2941,1011.2786 1951.5682,1006.9003 1945.8855,1004.5076" style="fill:none;fill-rule:evenodd;stroke:#111111;stroke-width:12;stroke-linecap:round;stroke-linejoin:round;stroke-miterlimit:4;stroke-dasharray:none;stroke-opacity:1"/>
    <path sodipodi:nodetypes="csss" id="path3206" d="M 1824.4546,1019.1631 C 1816.6141,1015.8783 1808.3155,1002.8615 1826.5481,1001.5168 C 1857.9735,999.19897 1874.5777,997.18632 1906.7046,997.03036 C 1915.6529,996.98692 1930.8312,1000.0213 1939.6046,1002.1149" style="fill:none;fill-rule:evenodd;stroke:#111111;stroke-width:12;stroke-linecap:round;stroke-linejoin:round;stroke-miterlimit:4;stroke-dasharray:none;stroke-opacity:1"/>
    <path sodipodi:nodetypes="cssss" id="path3208" d="M 1776.8991,1007.7976 C 1786.5697,1007.5982 1796.6372,1005.1973 1805.6118,1001.5167 C 1814.3833,997.91942 1823.2936,992.27127 1829.8382,985.66491 C 1833.8615,981.6037 1837.8952,974.41472 1837.3155,969.514 C 1836.7985,965.1429 1829.5391,961.13946 1824.1555,958.44764" style="fill:none;fill-rule:evenodd;stroke:#111111;stroke-width:12;stroke-linecap:round;stroke-linejoin:round;stroke-miterlimit:4;stroke-dasharray:none;stroke-opacity:1"/>
    <path sodipodi:nodetypes="css" id="path3210" d="M 1581.5927,939.00673 C 1586.1788,941.99763 1591.9182,943.82213 1596.5473,944.09127 C 1600.4921,944.32062 1609.6823,940.07847 1614.7544,936.83831" style="fill:none;fill-rule:evenodd;stroke:#111111;stroke-width:12;stroke-linecap:round;stroke-linejoin:round;stroke-miterlimit:4;stroke-dasharray:none;stroke-opacity:1"/>
    <path sodipodi:nodetypes="cssssssss" id="path3212" d="M 1615.6891,961.13945 C 1611.6015,957.94915 1607.8132,954.80113 1606.4173,950.07309 C 1603.6468,940.68936 1616.9188,935.16188 1627.0545,930.93127 C 1632.3345,928.72745 1637.8872,927.94298 1643.2054,929.43582 C 1649.2526,931.13328 1655.5459,938.79627 1661.1509,939.30582 C 1665.4159,939.69354 1672.3372,936.04963 1675.5073,932.42673 C 1679.316,928.07387 1678.2367,919.52537 1682.0873,915.37855 C 1684.717,912.54658 1690.1457,911.15336 1694.0509,911.19127 C 1700.4145,911.25305 1707.0115,914.58097 1713.4918,916.27582" style="fill:none;fill-rule:evenodd;stroke:#111111;stroke-width:12;stroke-linecap:round;stroke-linejoin:round;stroke-miterlimit:4;stroke-dasharray:none;stroke-opacity:1"/>
    <path sodipodi:nodetypes="css" id="path3214" d="M 2662.5073,1270.1003 C 2672.8758,1273.8888 2705.3591,1281.4102 2712.4555,1288.644 C 2720.8121,1297.1624 2729.2046,1333.8067 2734.2891,1345.7704" style="fill:none;fill-rule:evenodd;stroke:#111111;stroke-width:12;stroke-linecap:round;stroke-linejoin:round;stroke-miterlimit:4;stroke-dasharray:none;stroke-opacity:1"/>
    <path sodipodi:nodetypes="cssssssssszsssssssssssssssssssssssssssszsssssssssssss" id="path3216" d="M 2164.5209,1279.0731 C 2053.3059,1194.3856 1944.744,1111.8155 1833.1282,1024.8459 C 1824.8367,1018.3852 1806.9049,1009.6675 1796.639,1008.6949 C 1769.02,1006.0784 1741.3693,1010.3665 1713.1927,1009.2931 C 1699.4966,1008.7713 1684.8251,1006.0951 1672.8155,1000.0213 C 1650.1305,988.5484 1630.6595,971.18143 1609.1091,956.65309 C 1595.1674,947.25416 1581.0447,937.83542 1566.04,930.33309 C 1547.5465,921.08633 1526.7236,916.30047 1508.6145,906.40582 C 1488.0411,895.16471 1462.5445,883.66163 1449.9927,866.92582 C 1443.4027,858.13921 1453.4864,841.55462 1451.1891,829.83855 C 1449.4985,821.21644 1450.0683,811.61277 1435.6364,806.21036 C 1421.2045,800.80795 1395.8554,807.5583 1373.7245,804.71491 C 1369.0563,804.11513 1366.5557,796.23452 1367.1445,793.34945 C 1370.5436,776.69392 1375.6552,761.59123 1382.9964,746.09309 C 1386.4225,738.86032 1392.9846,731.41903 1399.7455,728.14764 C 1405.347,725.43721 1413.8834,725.98478 1420.0836,728.14764 C 1431.0313,731.96659 1442.0225,738.61017 1451.1891,746.09309 C 1461.5631,754.56168 1474.392,765.06081 1479.6028,777.19854 C 1488.134,797.07099 1496.7731,833.34176 1514.8955,840.30673 C 1707.8748,914.47438 1898.913,987.43071 2093.6364,1059.5404 C 2101.9122,1062.6051 2106.4344,1080.3965 2112.18,1086.7577 C 2117.6004,1092.7589 2125.4291,1097.1089 2133.1164,1097.824 C 2142.577,1098.704 2151.0704,1094.8345 2159.7355,1089.7485 C 2169.4147,1084.0672 2177.0007,1074.279 2186.9527,1065.8212 C 2194.5204,1059.3898 2201.0658,1053.2545 2212.9736,1054.1567 C 2225.1115,1055.0763 2237.7773,1079.876 2244.0791,1085.8604 C 2263.6558,1104.451 2283.303,1119.1012 2311.3745,1136.1076 C 2322.6649,1142.9476 2334.5758,1149.2221 2346.9664,1153.754 C 2455.4644,1193.4377 2558.1571,1232.1435 2666.3954,1271.2968 C 2676.6712,1275.0139 2692.7477,1286.6799 2700.1927,1294.6258 C 2714.3611,1309.7473 2734.3309,1336.7081 2735.1864,1351.453 C 2738.7268,1412.4808 2739.6909,1463.2368 2737.28,1524.3276 C 2736.7234,1538.4313 2726.1858,1555.4591 2716.6427,1564.4058 C 2707.044,1573.4046 2691.2012,1580.7732 2677.4618,1581.1549 C 2662.4885,1581.5708 2644.6061,1577.0158 2632,1569.1913 C 2621.4764,1562.6594 2611.6087,1549.3283 2610.4654,1538.0858 C 2609.216,1525.7998 2617.0817,1510.5137 2624.8218,1498.6058 C 2643.0029,1470.6349 2669.4013,1446.6682 2685.8364,1418.4495 C 2690.5371,1410.3785 2693.3136,1399.309 2693.3136,1389.7367 C 2693.3136,1379.7683 2689.0267,1366.8064 2685.8364,1359.8276 C 2682.6461,1352.8489 2675.2699,1348.9881 2669.0873,1347.864 C 2662.1099,1346.5954 2653.5078,1349.8136 2646.3564,1352.6495 C 2630.3781,1358.9857 2616.029,1370.3401 2599.6982,1375.3804 C 2583.7271,1380.3097 2566.1527,1382.9425 2549.4509,1382.5585 C 2531.4582,1382.1449 2512.2886,1379.5039 2495.6145,1372.9876 C 2477.594,1365.9451 2460.8869,1353.803 2445.3673,1341.8822 C 2433.3705,1332.6673 2425.562,1316.7899 2413.0655,1309.5804 C 2404.825,1304.8263 2392.4973,1304.0453 2383.1564,1305.9913 C 2373.3554,1308.0332 2365.601,1312.4392 2357.1355,1318.5531 C 2351.2446,1322.8076 2342.8887,1330.729 2341.2837,1337.3958 C 2337.7044,1352.2635 2340.4156,1368.4144 2340.0873,1384.054 C 2339.8451,1395.8898 2330.8453,1403.4652 2322.4409,1397.214 C 2272.809,1360.2981 2218.4568,1320.1439 2164.5209,1279.0731 z" style="fill:none;fill-rule:evenodd;stroke:#111111;stroke-width:12;stroke-linecap:round;stroke-linejoin:round;stroke-miterlimit:4;stroke-dasharray:none;stroke-opacity:1"/>
    <path style="fill:none;fill-rule:evenodd;stroke:#555555;stroke-width:10;stroke-linecap:round;stroke-linejoin:round;stroke-miterlimit:4;stroke-dasharray:none;stroke-opacity:1" d="M 1678.7973,923.41661 C 1679.0652,919.77767 1680.242,916.0525 1679.6945,912.53718 C 1679.2948,909.97099 1678.3597,906.99621 1676.5541,905.20946 C 1673.5742,902.26061 1668.1796,898.82885 1663.8427,897.43309" id="path3194" sodipodi:nodetypes="csss"/>
    <path style="fill:none;fill-rule:evenodd;stroke:#555555;stroke-width:10;stroke-linecap:butt;stroke-linejoin:miter;stroke-miterlimit:4;stroke-dasharray:none;stroke-opacity:1" d="M 2089.7481,1222.2458 C 2080.9748,1215.1673 2077.728,1205.4997 2074.7936,1196.524 C 2072.6434,1189.947 2072.4009,1182.5472 2072.4009,1175.5876 C 2072.4009,1170.6833 2072.4221,1164.7589 2074.7936,1160.9322 C 2076.8088,1157.6804 2081.554,1155.4714 2085.5609,1154.3522 C 2099.3998,1150.4866 2115.3374,1151.0772 2128.3309,1145.9776 C 2133.881,1143.7993 2138.8161,1137.8875 2141.1918,1132.5185 C 2143.801,1126.6218 2141.5345,1118.6693 2143.2855,1112.1804 C 2144.9242,1106.1075 2147.0958,1098.8317 2151.3609,1094.8331 C 2155.0715,1091.3544 2161.8116,1090.0559 2167.2127,1089.7485 C 2174.0743,1089.358 2181.4725,1090.5372 2188.1491,1092.7395 C 2226.2053,1105.2924 2303.0862,1136.6728 2340.5918,1151.0622" id="path3180" sodipodi:nodetypes="cssssssssssz"/>
    <path style="fill:none;fill-rule:evenodd;stroke:#555555;stroke-width:10;stroke-linecap:round;stroke-linejoin:round;stroke-miterlimit:4;stroke-dasharray:none;stroke-opacity:1" d="M 2083.7663,1055.9513 L 2195.0282,1095.1322" id="path3182" sodipodi:nodetypes="cc"/>
    <path style="fill:none;fill-rule:evenodd;stroke:#555555;stroke-width:10;stroke-linecap:round;stroke-linejoin:round;stroke-miterlimit:4;stroke-dasharray:none;stroke-opacity:1" d="M 1866.6263,1050.8667 C 1875.5991,1056.8485 1890.6301,1058.8502 1899.8255,1057.4467 C 1909.5726,1055.959 1915.7099,1051.8284 1924.65,1046.9785 C 1930.9635,1043.5536 1937.0485,1036.0584 1943.1937,1032.3231 C 1947.2176,1029.8772 1955.4918,1029.7631 1958.4473,1026.6404 C 1960.7758,1024.1801 1962.7835,1018.7559 1961.4382,1015.8731 C 1959.2941,1011.2786 1951.5682,1006.9003 1945.8855,1004.5076" id="path3184" sodipodi:nodetypes="cssssss"/>
    <path style="fill:none;fill-rule:evenodd;stroke:#555555;stroke-width:10;stroke-linecap:round;stroke-linejoin:round;stroke-miterlimit:4;stroke-dasharray:none;stroke-opacity:1" d="M 1824.4546,1019.1631 C 1816.6141,1015.8783 1808.3155,1002.8615 1826.5481,1001.5168 C 1857.9735,999.19897 1874.5777,997.18632 1906.7046,997.03036 C 1915.6529,996.98692 1930.8312,1000.0213 1939.6046,1002.1149" id="path3186" sodipodi:nodetypes="csss"/>
    <path style="fill:none;fill-rule:evenodd;stroke:#555555;stroke-width:10;stroke-linecap:round;stroke-linejoin:round;stroke-miterlimit:4;stroke-dasharray:none;stroke-opacity:1" d="M 1776.8991,1007.7976 C 1786.5697,1007.5982 1796.6372,1005.1973 1805.6118,1001.5167 C 1814.3833,997.91942 1823.2936,992.27127 1829.8382,985.66491 C 1833.8615,981.6037 1837.8952,974.41472 1837.3155,969.514 C 1836.7985,965.1429 1829.5391,961.13946 1824.1555,958.44764" id="path3188" sodipodi:nodetypes="cssss"/>
    <path style="fill:none;fill-rule:evenodd;stroke:#555555;stroke-width:10;stroke-linecap:round;stroke-linejoin:round;stroke-miterlimit:4;stroke-dasharray:none;stroke-opacity:1" d="M 1581.5927,939.00673 C 1586.1788,941.99763 1591.9182,943.82213 1596.5473,944.09127 C 1600.4921,944.32062 1609.6823,940.07847 1614.7544,936.83831" id="path3192" sodipodi:nodetypes="css"/>
    <path style="fill:none;fill-rule:evenodd;stroke:#555555;stroke-width:10;stroke-linecap:round;stroke-linejoin:round;stroke-miterlimit:4;stroke-dasharray:none;stroke-opacity:1" d="M 1615.6891,961.13945 C 1611.6015,957.94915 1607.8132,954.80113 1606.4173,950.07309 C 1603.6468,940.68936 1616.9188,935.16188 1627.0545,930.93127 C 1632.3345,928.72745 1637.8872,927.94298 1643.2054,929.43582 C 1649.2526,931.13328 1655.5459,938.79627 1661.1509,939.30582 C 1665.4159,939.69354 1672.3372,936.04963 1675.5073,932.42673 C 1679.316,928.07387 1678.2367,919.52537 1682.0873,915.37855 C 1684.717,912.54658 1690.1457,911.15336 1694.0509,911.19127 C 1700.4145,911.25305 1707.0115,914.58097 1713.4918,916.27582" id="path3190" sodipodi:nodetypes="cssssssss"/>
    <path style="fill:none;fill-rule:evenodd;stroke:#555555;stroke-width:10;stroke-linecap:round;stroke-linejoin:round;stroke-miterlimit:4;stroke-dasharray:none;stroke-opacity:1" d="M 2662.5073,1270.1003 C 2672.8758,1273.8888 2705.3591,1281.4102 2712.4555,1288.644 C 2720.8121,1297.1624 2729.2046,1333.8067 2734.2891,1345.7704" id="path3196" sodipodi:nodetypes="css"/>
    <path style="fill:none;fill-rule:evenodd;stroke:#999999;stroke-width:10;stroke-linecap:round;stroke-linejoin:round;stroke-miterlimit:4;stroke-dasharray:none;stroke-opacity:1" d="M 2164.5209,1279.0731 C 2053.3059,1194.3856 1944.744,1111.8155 1833.1282,1024.8459 C 1824.8367,1018.3852 1806.9049,1009.6675 1796.639,1008.6949 C 1769.02,1006.0784 1741.3693,1010.3665 1713.1927,1009.2931 C 1699.4966,1008.7713 1684.8251,1006.0951 1672.8155,1000.0213 C 1650.1305,988.5484 1630.6595,971.18143 1609.1091,956.65309 C 1595.1674,947.25416 1581.0447,937.83542 1566.04,930.33309 C 1547.5465,921.08633 1526.7236,916.30047 1508.6145,906.40582 C 1488.0411,895.16471 1462.5445,883.66163 1449.9927,866.92582 C 1443.4027,858.13921 1453.4864,841.55462 1451.1891,829.83855 C 1449.4985,821.21644 1450.0683,811.61277 1435.6364,806.21036 C 1421.2045,800.80795 1395.8554,807.5583 1373.7245,804.71491 C 1369.0563,804.11513 1366.5557,796.23452 1367.1445,793.34945 C 1370.5436,776.69392 1375.6552,761.59123 1382.9964,746.09309 C 1386.4225,738.86032 1392.9846,731.41903 1399.7455,728.14764 C 1405.347,725.43721 1413.8834,725.98478 1420.0836,728.14764 C 1431.0313,731.96659 1442.0225,738.61017 1451.1891,746.09309 C 1461.5631,754.56168 1474.392,765.06081 1479.6028,777.19854 C 1488.134,797.07099 1496.7731,833.34176 1514.8955,840.30673 C 1707.8748,914.47438 1898.913,987.43071 2093.6364,1059.5404 C 2101.9122,1062.6051 2106.4344,1080.3965 2112.18,1086.7577 C 2117.6004,1092.7589 2125.4291,1097.1089 2133.1164,1097.824 C 2142.577,1098.704 2151.0704,1094.8345 2159.7355,1089.7485 C 2169.4147,1084.0672 2177.0007,1074.279 2186.9527,1065.8212 C 2194.5204,1059.3898 2201.0658,1053.2545 2212.9736,1054.1567 C 2225.1115,1055.0763 2237.7773,1079.876 2244.0791,1085.8604 C 2263.6558,1104.451 2283.303,1119.1012 2311.3745,1136.1076 C 2322.6649,1142.9476 2334.5758,1149.2221 2346.9664,1153.754 C 2455.4644,1193.4377 2558.1571,1232.1435 2666.3954,1271.2968 C 2676.6712,1275.0139 2692.7477,1286.6799 2700.1927,1294.6258 C 2714.3611,1309.7473 2734.3309,1336.7081 2735.1864,1351.453 C 2738.7268,1412.4808 2739.6909,1463.2368 2737.28,1524.3276 C 2736.7234,1538.4313 2726.1858,1555.4591 2716.6427,1564.4058 C 2707.044,1573.4046 2691.2012,1580.7732 2677.4618,1581.1549 C 2662.4885,1581.5708 2644.6061,1577.0158 2632,1569.1913 C 2621.4764,1562.6594 2611.6087,1549.3283 2610.4654,1538.0858 C 2609.216,1525.7998 2617.0817,1510.5137 2624.8218,1498.6058 C 2643.0029,1470.6349 2669.4013,1446.6682 2685.8364,1418.4495 C 2690.5371,1410.3785 2693.3136,1399.309 2693.3136,1389.7367 C 2693.3136,1379.7683 2689.0267,1366.8064 2685.8364,1359.8276 C 2682.6461,1352.8489 2675.2699,1348.9881 2669.0873,1347.864 C 2662.1099,1346.5954 2653.5078,1349.8136 2646.3564,1352.6495 C 2630.3781,1358.9857 2616.029,1370.3401 2599.6982,1375.3804 C 2583.7271,1380.3097 2566.1527,1382.9425 2549.4509,1382.5585 C 2531.4582,1382.1449 2512.2886,1379.5039 2495.6145,1372.9876 C 2477.594,1365.9451 2460.8869,1353.803 2445.3673,1341.8822 C 2433.3705,1332.6673 2425.562,1316.7899 2413.0655,1309.5804 C 2404.825,1304.8263 2392.4973,1304.0453 2383.1564,1305.9913 C 2373.3554,1308.0332 2365.601,1312.4392 2357.1355,1318.5531 C 2351.2446,1322.8076 2342.8887,1330.729 2341.2837,1337.3958 C 2337.7044,1352.2635 2340.4156,1368.4144 2340.0873,1384.054 C 2339.8451,1395.8898 2330.8453,1403.4652 2322.4409,1397.214 C 2272.809,1360.2981 2218.4568,1320.1439 2164.5209,1279.0731 z" id="path2406" sodipodi:nodetypes="cssssssssszsssssssssssssssssssssssssssszsssssssssssss"/>
    <path style="fill:none;fill-rule:evenodd;stroke:#999999;stroke-width:2;stroke-linecap:round;stroke-linejoin:round;stroke-miterlimit:4;stroke-dasharray:none;stroke-opacity:1" d="M 2260.0056,1345.9199 C 2253.7497,1341.1594 2247.3623,1335.6985 2242.8827,1329.6195 C 2239.5662,1325.1189 2245.3826,1317.2422 2240.7891,1308.6831 C 2238.2864,1304.0256 2234.0974,1299.4236 2229.4236,1296.4204 C 2183.0525,1266.6233 2132.2236,1242.978 2087.6545,1210.2822 C 2067.5514,1195.5346 2045.9064,1182.8655 2025.7427,1168.2599" id="path3178" sodipodi:nodetypes="csssss"/>
    <g id="g3346" transform="translate(13.337132,-4.4457106)">
      <path transform="matrix(0.904534,0,0,0.904534,-354.60404,-257.69104)" d="M 2366.2293,1445.2518 A 22.784267,22.784267 0 1 1 2320.6608,1445.2518 A 22.784267,22.784267 0 1 1 2366.2293,1445.2518 z" sodipodi:ry="22.784267" sodipodi:rx="22.784267" sodipodi:cy="1445.2518" sodipodi:cx="2343.4451" id="path3344" style="opacity:1;fill:#111111;fill-opacity:1;fill-rule:nonzero;stroke:#181818;stroke-width:1.10554159;stroke-linecap:round;stroke-linejoin:round;stroke-miterlimit:4;stroke-dasharray:none;stroke-dashoffset:0;stroke-opacity:1" sodipodi:type="arc"/>
      <text id="text3235" y="1063.104" x="1755.2194" style="font-size:40px;font-style:normal;font-weight:normal;fill:#999999;fill-opacity:1;stroke:none;stroke-width:1px;stroke-linecap:butt;stroke-linejoin:miter;stroke-opacity:1;font-family:Times New Roman" xml:space="preserve"><tspan y="1063.104" x="1755.2194" id="tspan3237" sodipodi:role="line">1</tspan></text>
    </g>
    <g id="g3339" transform="translate(14.886607,-21.757349)">
      <path transform="matrix(0.904534,0,0,0.904534,-716.90738,-446.74768)" d="M 2366.2293,1445.2518 A 22.784267,22.784267 0 1 1 2320.6608,1445.2518 A 22.784267,22.784267 0 1 1 2366.2293,1445.2518 z" sodipodi:ry="22.784267" sodipodi:rx="22.784267" sodipodi:cy="1445.2518" sodipodi:cx="2343.4451" id="path3337" style="opacity:1;fill:#111111;fill-opacity:1;fill-rule:nonzero;stroke:#181818;stroke-width:1.10554159;stroke-linecap:round;stroke-linejoin:round;stroke-miterlimit:4;stroke-dasharray:none;stroke-dashoffset:0;stroke-opacity:1" sodipodi:type="arc"/>
      <text id="text3239" y="874.04736" x="1393.2188" style="font-size:40px;font-style:normal;font-weight:normal;fill:#999999;fill-opacity:1;stroke:none;stroke-width:1px;stroke-linecap:butt;stroke-linejoin:miter;stroke-opacity:1;font-family:Times New Roman" xml:space="preserve"><tspan y="874.04736" x="1393.2188" id="tspan3241" sodipodi:role="line">2</tspan></text>
    </g>
    <g id="g3332" transform="translate(13.337132,4.4457106)">
      <path transform="matrix(0.904534,0,0,0.904534,-781.80777,-578.63812)" d="M 2366.2293,1445.2518 A 22.784267,22.784267 0 1 1 2320.6608,1445.2518 A 22.784267,22.784267 0 1 1 2366.2293,1445.2518 z" sodipodi:ry="22.784267" sodipodi:rx="22.784267" sodipodi:cy="1445.2518" sodipodi:cx="2343.4451" id="path3324" style="opacity:1;fill:#111111;fill-opacity:1;fill-rule:nonzero;stroke:#181818;stroke-width:1.10554159;stroke-linecap:round;stroke-linejoin:round;stroke-miterlimit:4;stroke-dasharray:none;stroke-dashoffset:0;stroke-opacity:1" sodipodi:type="arc"/>
      <text id="text3243" y="741.92255" x="1328.7676" style="font-size:40px;font-style:normal;font-weight:normal;fill:#999999;fill-opacity:1;stroke:none;stroke-width:1px;stroke-linecap:butt;stroke-linejoin:miter;stroke-opacity:1;font-family:Times New Roman" xml:space="preserve"><tspan y="741.92255" x="1328.7676" id="tspan3245" sodipodi:role="line">3</tspan></text>
    </g>
    <g id="g3319" transform="translate(-6.8707419,37.78908)">
      <path transform="matrix(0.904534,0,0,0.904534,-578.3179,-536.97925)" d="M 2366.2293,1445.2518 A 22.784267,22.784267 0 1 1 2320.6608,1445.2518 A 22.784267,22.784267 0 1 1 2366.2293,1445.2518 z" sodipodi:ry="22.784267" sodipodi:rx="22.784267" sodipodi:cy="1445.2518" sodipodi:cx="2343.4451" id="path3317" style="opacity:1;fill:#111111;fill-opacity:1;fill-rule:nonzero;stroke:#181818;stroke-width:1.10554159;stroke-linecap:round;stroke-linejoin:round;stroke-miterlimit:4;stroke-dasharray:none;stroke-dashoffset:0;stroke-opacity:1" sodipodi:type="arc"/>
      <text id="text3247" y="783.8158" x="1531.7887" style="font-size:40px;font-style:normal;font-weight:normal;fill:#999999;fill-opacity:1;stroke:none;stroke-width:1px;stroke-linecap:butt;stroke-linejoin:miter;stroke-opacity:1;font-family:Times New Roman" xml:space="preserve"><tspan y="783.8158" x="1531.7887" id="tspan3249" sodipodi:role="line">4</tspan></text>
    </g>
    <g id="g3312" transform="translate(-6.8707419,12.59636)">
      <path transform="matrix(0.904534,0,0,0.904534,634.45712,-44.494386)" d="M 2366.2293,1445.2518 A 22.784267,22.784267 0 1 1 2320.6608,1445.2518 A 22.784267,22.784267 0 1 1 2366.2293,1445.2518 z" sodipodi:ry="22.784267" sodipodi:rx="22.784267" sodipodi:cy="1445.2518" sodipodi:cx="2343.4451" id="path3310" style="opacity:1;fill:#111111;fill-opacity:1;fill-rule:nonzero;stroke:#181818;stroke-width:1.10554159;stroke-linecap:round;stroke-linejoin:round;stroke-miterlimit:4;stroke-dasharray:none;stroke-dashoffset:0;stroke-opacity:1" sodipodi:type="arc"/>
      <text id="text3251" y="1275.7928" x="2744.5442" style="font-size:40px;font-style:normal;font-weight:normal;fill:#999999;fill-opacity:1;stroke:none;stroke-width:1px;stroke-linecap:butt;stroke-linejoin:miter;stroke-opacity:1;font-family:Times New Roman" xml:space="preserve"><tspan y="1275.7928" x="2744.5442" id="tspan3253" sodipodi:role="line">5</tspan></text>
    </g>
    <g id="g3305" transform="translate(6.6685658,7.7799935)">
      <path transform="matrix(0.904534,0,0,0.904534,449.07235,229.14941)" d="M 2366.2293,1445.2518 A 22.784267,22.784267 0 1 1 2320.6608,1445.2518 A 22.784267,22.784267 0 1 1 2366.2293,1445.2518 z" sodipodi:ry="22.784267" sodipodi:rx="22.784267" sodipodi:cy="1445.2518" sodipodi:cx="2343.4451" id="path3303" style="opacity:1;fill:#111111;fill-opacity:1;fill-rule:nonzero;stroke:#181818;stroke-width:1.10554159;stroke-linecap:round;stroke-linejoin:round;stroke-miterlimit:4;stroke-dasharray:none;stroke-dashoffset:0;stroke-opacity:1" sodipodi:type="arc"/>
      <text id="text3255" y="1549.7101" x="2558.7102" style="font-size:40px;font-style:normal;font-weight:normal;fill:#999999;fill-opacity:1;stroke:none;stroke-width:1px;stroke-linecap:butt;stroke-linejoin:miter;stroke-opacity:1;font-family:Times New Roman" xml:space="preserve"><tspan y="1549.7101" x="2558.7102" id="tspan3257" sodipodi:role="line">6</tspan></text>
    </g>
    <g id="g3298" transform="translate(13.337132,4.4457106)">
      <path transform="matrix(0.904534,0,0,0.904534,522.95663,73.705077)" d="M 2366.2293,1445.2518 A 22.784267,22.784267 0 1 1 2320.6608,1445.2518 A 22.784267,22.784267 0 1 1 2366.2293,1445.2518 z" sodipodi:ry="22.784267" sodipodi:rx="22.784267" sodipodi:cy="1445.2518" sodipodi:cx="2343.4451" id="path3296" style="opacity:1;fill:#111111;fill-opacity:1;fill-rule:nonzero;stroke:#181818;stroke-width:1.10554159;stroke-linecap:round;stroke-linejoin:round;stroke-miterlimit:4;stroke-dasharray:none;stroke-dashoffset:0;stroke-opacity:1" sodipodi:type="arc"/>
      <text id="text3259" y="1393.9532" x="2632.8289" style="font-size:40px;font-style:normal;font-weight:normal;fill:#999999;fill-opacity:1;stroke:none;stroke-width:1px;stroke-linecap:butt;stroke-linejoin:miter;stroke-opacity:1;font-family:Times New Roman" xml:space="preserve"><tspan y="1393.9532" x="2632.8289" id="tspan3261" sodipodi:role="line">7</tspan></text>
    </g>
    <g id="g3291">
      <path transform="matrix(0.904534,0,0,0.904534,404.33621,102.71943)" d="M 2366.2293,1445.2518 A 22.784267,22.784267 0 1 1 2320.6608,1445.2518 A 22.784267,22.784267 0 1 1 2366.2293,1445.2518 z" sodipodi:ry="22.784267" sodipodi:rx="22.784267" sodipodi:cy="1445.2518" sodipodi:cx="2343.4451" id="path3289" style="opacity:1;fill:#111111;fill-opacity:1;fill-rule:nonzero;stroke:#181818;stroke-width:1.10554159;stroke-linecap:round;stroke-linejoin:round;stroke-miterlimit:4;stroke-dasharray:none;stroke-dashoffset:0;stroke-opacity:1" sodipodi:type="arc"/>
      <text id="text3263" y="1422.9562" x="2513.5942" style="font-size:40px;font-style:normal;font-weight:normal;fill:#999999;fill-opacity:1;stroke:none;stroke-width:1px;stroke-linecap:butt;stroke-linejoin:miter;stroke-opacity:1;font-family:Times New Roman" xml:space="preserve"><tspan y="1422.9562" x="2513.5942" id="tspan3265" sodipodi:role="line">8</tspan></text>
    </g>
    <g id="g3284" transform="translate(-4.4457106,0)">
      <path transform="matrix(0.904534,0,0,0.904534,279.19467,32.612548)" d="M 2366.2293,1445.2518 A 22.784267,22.784267 0 1 1 2320.6608,1445.2518 A 22.784267,22.784267 0 1 1 2366.2293,1445.2518 z" sodipodi:ry="22.784267" sodipodi:rx="22.784267" sodipodi:cy="1445.2518" sodipodi:cx="2343.4451" id="path3282" style="opacity:1;fill:#111111;fill-opacity:1;fill-rule:nonzero;stroke:#181818;stroke-width:1.10554159;stroke-linecap:round;stroke-linejoin:round;stroke-miterlimit:4;stroke-dasharray:none;stroke-dashoffset:0;stroke-opacity:1" sodipodi:type="arc"/>
      <text id="text3267" y="1353.1342" x="2388.9888" style="font-size:40px;font-style:normal;font-weight:normal;fill:#999999;fill-opacity:1;stroke:none;stroke-width:1px;stroke-linecap:butt;stroke-linejoin:miter;stroke-opacity:1;font-family:Times New Roman" xml:space="preserve"><tspan y="1353.1342" x="2388.9888" id="tspan3269" sodipodi:role="line">9</tspan></text>
    </g>
    <g id="g3277" transform="translate(-5.610039,-7.8540546)">
      <path transform="matrix(0.904534,0,0,0.904534,226.44272,132.47278)" d="M 2366.2293,1445.2518 A 22.784267,22.784267 0 1 1 2320.6608,1445.2518 A 22.784267,22.784267 0 1 1 2366.2293,1445.2518 z" sodipodi:ry="22.784267" sodipodi:rx="22.784267" sodipodi:cy="1445.2518" sodipodi:cx="2343.4451" id="path3275" style="opacity:1;fill:#111111;fill-opacity:1;fill-rule:nonzero;stroke:#181818;stroke-width:1.10554159;stroke-linecap:round;stroke-linejoin:round;stroke-miterlimit:4;stroke-dasharray:none;stroke-dashoffset:0;stroke-opacity:1" sodipodi:type="arc"/>
      <text id="text3271" y="1453.0334" x="2324.5376" style="font-size:40px;font-style:normal;font-weight:normal;fill:#999999;fill-opacity:1;stroke:none;stroke-width:1px;stroke-linecap:butt;stroke-linejoin:miter;stroke-opacity:1;font-family:Times New Roman" xml:space="preserve"><tspan y="1453.0334" x="2324.5376" id="tspan3273" sodipodi:role="line">10</tspan></text>
    </g>
    <text xml:space="preserve" style="font-size:22px;font-style:normal;font-weight:normal;fill:#999999;fill-opacity:1;stroke:none;stroke-width:1px;stroke-linecap:butt;stroke-linejoin:miter;stroke-opacity:1;font-family:Times New Roman" x="1734.6364" y="1090.4871" id="text3351"><tspan sodipodi:role="line" id="tspan3353" x="1734.6364" y="1090.4871">Verriere</tspan></text>
    <text xml:space="preserve" style="font-size:22px;font-style:normal;font-weight:normal;fill:#999999;fill-opacity:1;stroke:none;stroke-width:1px;stroke-linecap:butt;stroke-linejoin:miter;stroke-opacity:1;font-family:Times New Roman" x="1364.5299" y="883.12085" id="text3355"><tspan sodipodi:role="line" id="tspan3357" x="1364.5299" y="883.12085">Chicane</tspan></text>
    <text xml:space="preserve" style="font-size:22px;font-style:normal;font-weight:normal;fill:#999999;fill-opacity:1;stroke:none;stroke-width:1px;stroke-linecap:butt;stroke-linejoin:miter;stroke-opacity:1;font-family:Times New Roman" x="1381.4728" y="709.1109" id="text3359"><tspan sodipodi:role="line" id="tspan3361" x="1381.4728" y="709.1109">Saint-Beaurne</tspan></text>
    <text xml:space="preserve" style="font-size:22px;font-style:normal;font-weight:normal;fill:#999999;fill-opacity:1;stroke:none;stroke-width:1px;stroke-linecap:butt;stroke-linejoin:miter;stroke-opacity:1;font-family:Times New Roman" x="1567.3483" y="815.59497" id="text3363"><tspan sodipodi:role="line" id="tspan3365" x="1567.3483" y="815.59497">L'ecole</tspan></text>
    <text xml:space="preserve" style="font-size:22px;font-style:normal;font-weight:normal;fill:#999999;fill-opacity:1;stroke:none;stroke-width:1px;stroke-linecap:butt;stroke-linejoin:miter;stroke-opacity:1;font-family:Times New Roman" x="2027.5464" y="259.91562" id="text3367" transform="matrix(0.939127,0.3435702,-0.3435702,0.939127,0,0)"><tspan sodipodi:role="line" id="tspan3369" x="2027.5464" y="259.91562">Mistral Straight</tspan></text>
    <text xml:space="preserve" style="font-size:22px;font-style:normal;font-weight:normal;fill:#999999;fill-opacity:1;stroke:none;stroke-width:1px;stroke-linecap:butt;stroke-linejoin:miter;stroke-opacity:1;font-family:Times New Roman" x="2666.3149" y="1254.642" id="text3371"><tspan sodipodi:role="line" id="tspan3373" x="2666.3149" y="1254.642">Signes</tspan></text>
    <text xml:space="preserve" style="font-size:22px;font-style:normal;font-weight:normal;fill:#999999;fill-opacity:1;stroke:none;stroke-width:1px;stroke-linecap:butt;stroke-linejoin:miter;stroke-opacity:1;font-family:Times New Roman" x="2469.6875" y="1548.0166" id="text3375"><tspan sodipodi:role="line" id="tspan3377" x="2469.6875" y="1548.0166">Beausset</tspan></text>
    <text xml:space="preserve" style="font-size:22px;font-style:normal;font-weight:normal;fill:#999999;fill-opacity:1;stroke:none;stroke-width:1px;stroke-linecap:butt;stroke-linejoin:miter;stroke-opacity:1;font-family:Times New Roman" x="2625.1919" y="1331.3306" id="text3379"><tspan sodipodi:role="line" id="tspan3381" x="2625.1919" y="1331.3306">Bendor</tspan></text>
    <text xml:space="preserve" style="font-size:22px;font-style:normal;font-weight:normal;fill:#999999;fill-opacity:1;stroke:none;stroke-width:1px;stroke-linecap:butt;stroke-linejoin:miter;stroke-opacity:1;font-family:Times New Roman" x="2495.155" y="1360.2277" id="text3383"><tspan sodipodi:role="line" id="tspan3385" x="2495.155" y="1360.2277">Village</tspan></text>
    <text xml:space="preserve" style="font-size:22px;font-style:normal;font-weight:normal;fill:#999999;fill-opacity:1;stroke:none;stroke-width:1px;stroke-linecap:butt;stroke-linejoin:miter;stroke-opacity:1;font-family:Times New Roman" x="2368.4524" y="1289.0963" id="text3387"><tspan sodipodi:role="line" id="tspan3389" x="2368.4524" y="1289.0963">Tour</tspan></text>
    <text xml:space="preserve" style="font-size:22px;font-style:normal;font-weight:normal;fill:#999999;fill-opacity:1;stroke:none;stroke-width:1px;stroke-linecap:butt;stroke-linejoin:miter;stroke-opacity:1;font-family:Times New Roman" x="2178.4722" y="1434.5558" id="text3391"><tspan sodipodi:role="line" id="tspan3393" x="2178.4722" y="1434.5558">Virage du Pont</tspan></text>
    <text transform="matrix(0.939127,0.3435702,-0.3435702,0.939127,0,0)" id="text3395" y="262.33899" x="2654.4741" style="font-size:22px;font-style:normal;font-weight:normal;fill:#999999;fill-opacity:1;stroke:none;stroke-width:1px;stroke-linecap:butt;stroke-linejoin:miter;stroke-opacity:1;font-family:Times New Roman" xml:space="preserve"><tspan y="262.33899" x="2654.4741" id="tspan3397" sodipodi:role="line">Mistral Straight</tspan></text>
    <g id="g3804" transform="translate(221.00886,-52.675688)">
      <text id="text3180" y="964.98792" x="2073.4658" style="font-size:64px;font-style:normal;font-weight:normal;fill:#999999;fill-opacity:1;stroke:#111111;stroke-width:1px;stroke-linecap:butt;stroke-linejoin:miter;stroke-opacity:1;font-family:Times New Roman" xml:space="preserve"><tspan y="964.98792" x="2073.4658" id="tspan3182" sodipodi:role="line">N</tspan></text>
      <path id="path2745" d="M 2151.0245,917.30041 L 2161.837,970.98783 L 2160.8057,970.98792 L 2151.0246,959.58163 L 2141.2431,970.98784 L 2140.2121,970.98783 L 2151.0245,917.30041 z" style="fill:#ff0000;fill-opacity:1;fill-rule:nonzero;stroke:#111111;stroke-width:1;stroke-linecap:round;stroke-linejoin:round;stroke-miterlimit:4;stroke-dasharray:none;stroke-dashoffset:0;stroke-opacity:1"/>
    </g>
    <g transform="matrix(-1,0,0,-1,3562.9445,2074.3723)" id="g4801">
      <path clip-path="url(#clipPath3494)" transform="matrix(-0.358939,0.3679125,-1.1151124,-1.0879142,3587.0721,1686.6577)" d="M 1695.937,1398.5206 L 1671.4558,1398.5206 L 1683.6964,1377.3193 L 1695.937,1398.5206 z" inkscape:randomized="0" inkscape:rounded="0" inkscape:flatsided="true" sodipodi:arg2="1.5707963" sodipodi:arg1="0.52359878" sodipodi:r2="7.0671172" sodipodi:r1="14.134234" sodipodi:cy="1391.4535" sodipodi:cx="1683.6964" sodipodi:sides="3" id="path3463" style="opacity:1;fill:#ff0000;fill-opacity:1;stroke:#111111;stroke-width:0.83812821;stroke-linecap:round;stroke-linejoin:miter;stroke-miterlimit:4;stroke-dasharray:none;stroke-dashoffset:0;stroke-opacity:1;display:inline" sodipodi:type="star"/>
      <rect clip-path="url(#clipPath3490)" ry="0" transform="matrix(-0.7183395,-0.6956928,0.6956928,-0.7183395,0,0)" y="376.01733" x="-1620.8837" height="53.588943" width="13.041035" id="rect3457" style="opacity:1;fill:url(#pattern4166);fill-opacity:1;stroke:#999999;stroke-width:0.74999946;stroke-linecap:round;stroke-linejoin:round;stroke-miterlimit:4;stroke-dasharray:none;stroke-dashoffset:0;stroke-opacity:1;display:inline"/>
    </g>
  </g>
</svg>
